HIERARCHY
ROOT pelvis
{
	OFFSET 0.003123 -0.351407 0.012037
	CHANNELS 6 Xposition Yposition Zposition Zrotation Yrotation Xrotation 
	JOINT left_hip
	{
		OFFSET 0.058189 -0.092763 -0.026001
		CHANNELS 3 Zrotation Yrotation Xrotation
		JOINT left_knee
		{
			OFFSET 0.054695 -0.378753 -0.009396
			CHANNELS 3 Zrotation Yrotation Xrotation
			JOINT left_ankle
			{
				OFFSET -0.043453 -0.403059 -0.031876
				CHANNELS 3 Zrotation Yrotation Xrotation
				JOINT left_foot
				{
					OFFSET 0.047257 -0.057997 0.118216
					CHANNELS 3 Zrotation Yrotation Xrotation
					End Site
					{
						OFFSET 0.000000 0.000000 0.000000
					}
				}
			}
		}
	}
	JOINT right_hip
	{
		OFFSET -0.063267 -0.103908 -0.021250
		CHANNELS 3 Zrotation Yrotation Xrotation
		JOINT right_knee
		{
			OFFSET -0.044210 -0.362380 -0.016824
			CHANNELS 3 Zrotation Yrotation Xrotation
			JOINT right_ankle
			{
				OFFSET 0.015417 -0.410728 -0.020192
				CHANNELS 3 Zrotation Yrotation Xrotation
				JOINT right_foot
				{
					OFFSET -0.038812 -0.058328 0.119049
					CHANNELS 3 Zrotation Yrotation Xrotation
					End Site
					{
						OFFSET 0.000000 0.000000 0.000000
					}
				}
			}
		}
	}
	JOINT spine_1
	{
		OFFSET -0.002763 0.109891 -0.027618
		CHANNELS 3 Zrotation Yrotation Xrotation
		JOINT spine_2
		{
			OFFSET 0.009448 0.131853 -0.005940
			CHANNELS 3 Zrotation Yrotation Xrotation
			JOINT spine_3
			{
				OFFSET -0.011330 0.052235 0.028447
				CHANNELS 3 Zrotation Yrotation Xrotation
				JOINT neck
				{
					OFFSET -0.012164 0.165167 -0.031615
					CHANNELS 3 Zrotation Yrotation Xrotation
					JOINT head
					{
						OFFSET 0.024783 0.160452 0.020737
						CHANNELS 3 Zrotation Yrotation Xrotation
						End Site
						{
							OFFSET 0.000000 0.000000 0.000000
						}
					}
				}
				JOINT left_collar
				{
					OFFSET 0.046364 0.084944 -0.007220
					CHANNELS 3 Zrotation Yrotation Xrotation
					JOINT left_shoulder
					{
						OFFSET 0.119239 0.057728 -0.015461
						CHANNELS 3 Zrotation Yrotation Xrotation
						JOINT left_elbow
						{
							OFFSET 0.254123 -0.072151 -0.042459
							CHANNELS 3 Zrotation Yrotation Xrotation
							JOINT left_wrist
							{
								OFFSET 0.251987 0.023221 -0.002472
								CHANNELS 3 Zrotation Yrotation Xrotation
								JOINT left_index_1
								{
									OFFSET 0.101902 -0.008688 0.019351
									CHANNELS 3 Zrotation Yrotation Xrotation
									JOINT left_index_2
									{
										OFFSET 0.030149 -0.011154 0.001151
										CHANNELS 3 Zrotation Yrotation Xrotation
										JOINT left_index_3
										{
											OFFSET 0.006504 -0.021577 -0.002433
											CHANNELS 3 Zrotation Yrotation Xrotation
											End Site
											{
												OFFSET 0.000000 0.000000 0.000000
											}
										}
									}
								}
								JOINT left_middle_1
								{
									OFFSET 0.109398 -0.006328 -0.003981
									CHANNELS 3 Zrotation Yrotation Xrotation
									JOINT left_middle_2
									{
										OFFSET 0.026472 -0.015218 -0.004641
										CHANNELS 3 Zrotation Yrotation Xrotation
										JOINT left_middle_3
										{
											OFFSET 0.005022 -0.023347 -0.001911
											CHANNELS 3 Zrotation Yrotation Xrotation
											End Site
											{
												OFFSET 0.000000 0.000000 0.000000
											}
										}
									}
								}
								JOINT left_pinky_1
								{
									OFFSET 0.084047 -0.014539 -0.043750
									CHANNELS 3 Zrotation Yrotation Xrotation
									JOINT left_pinky_2
									{
										OFFSET 0.012124 -0.014448 -0.005375
										CHANNELS 3 Zrotation Yrotation Xrotation
										JOINT left_pinky_3
										{
											OFFSET 0.003798 -0.018853 0.000167
											CHANNELS 3 Zrotation Yrotation Xrotation
											End Site
											{
												OFFSET 0.000000 0.000000 0.000000
											}
										}
									}
								}
								JOINT left_ring_1
								{
									OFFSET 0.097444 -0.009268 -0.027345
									CHANNELS 3 Zrotation Yrotation Xrotation
									JOINT left_ring_2
									{
										OFFSET 0.023561 -0.016057 -0.001895
										CHANNELS 3 Zrotation Yrotation Xrotation
										JOINT left_ring_3
										{
											OFFSET 0.004257 -0.023548 0.000814
											CHANNELS 3 Zrotation Yrotation Xrotation
											End Site
											{
												OFFSET 0.000000 0.000000 0.000000
											}
										}
									}
								}
								JOINT left_thumb_1
								{
									OFFSET 0.040636 -0.017977 0.025611
									CHANNELS 3 Zrotation Yrotation Xrotation
									JOINT left_thumb_2
									{
										OFFSET 0.021637 -0.017639 0.011623
										CHANNELS 3 Zrotation Yrotation Xrotation
										JOINT left_thumb_3
										{
											OFFSET 0.024002 -0.008356 0.006548
											CHANNELS 3 Zrotation Yrotation Xrotation
											End Site
											{
												OFFSET 0.000000 0.000000 0.000000
											}
										}
									}
								}
							}
						}
					}
				}
				JOINT right_collar
				{
					OFFSET -0.047695 0.084339 -0.013400
					CHANNELS 3 Zrotation Yrotation Xrotation
					JOINT right_shoulder
					{
						OFFSET -0.102578 0.053524 -0.012669
						CHANNELS 3 Zrotation Yrotation Xrotation
						JOINT right_elbow
						{
							OFFSET -0.271150 -0.036492 -0.026467
							CHANNELS 3 Zrotation Yrotation Xrotation
							JOINT right_wrist
							{
								OFFSET -0.249267 -0.004533 -0.015325
								CHANNELS 3 Zrotation Yrotation Xrotation
								JOINT right_index_1
								{
									OFFSET -0.099881 -0.011783 0.019600
									CHANNELS 3 Zrotation Yrotation Xrotation
									JOINT right_index_2
									{
										OFFSET -0.030148 -0.011154 0.001151
										CHANNELS 3 Zrotation Yrotation Xrotation
										JOINT right_index_3
										{
											OFFSET -0.006505 -0.021577 -0.002432
											CHANNELS 3 Zrotation Yrotation Xrotation
											End Site
											{
												OFFSET 0.000000 0.000000 0.000000
											}
										}
									}
								}
								JOINT right_middle_1
								{
									OFFSET -0.107376 -0.009422 -0.003734
									CHANNELS 3 Zrotation Yrotation Xrotation
									JOINT right_middle_2
									{
										OFFSET -0.026472 -0.015218 -0.004641
										CHANNELS 3 Zrotation Yrotation Xrotation
										JOINT right_middle_3
										{
											OFFSET -0.005022 -0.023347 -0.001911
											CHANNELS 3 Zrotation Yrotation Xrotation
											End Site
											{
												OFFSET 0.000000 0.000000 0.000000
											}
										}
									}
								}
								JOINT right_pinky_1
								{
									OFFSET -0.082027 -0.017634 -0.043503
									CHANNELS 3 Zrotation Yrotation Xrotation
									JOINT right_pinky_2
									{
										OFFSET -0.012123 -0.014448 -0.005374
										CHANNELS 3 Zrotation Yrotation Xrotation
										JOINT right_pinky_3
										{
											OFFSET -0.003798 -0.018852 0.000167
											CHANNELS 3 Zrotation Yrotation Xrotation
											End Site
											{
												OFFSET 0.000000 0.000000 0.000000
											}
										}
									}
								}
								JOINT right_ring_1
								{
									OFFSET -0.095423 -0.012362 -0.027099
									CHANNELS 3 Zrotation Yrotation Xrotation
									JOINT right_ring_2
									{
										OFFSET -0.023561 -0.016057 -0.001895
										CHANNELS 3 Zrotation Yrotation Xrotation
										JOINT right_ring_3
										{
											OFFSET -0.004257 -0.023548 0.000816
											CHANNELS 3 Zrotation Yrotation Xrotation
											End Site
											{
												OFFSET 0.000000 0.000000 0.000000
											}
										}
									}
								}
								JOINT right_thumb_1
								{
									OFFSET -0.038613 -0.021074 0.025861
									CHANNELS 3 Zrotation Yrotation Xrotation
									JOINT right_thumb_2
									{
										OFFSET -0.021636 -0.017639 0.011623
										CHANNELS 3 Zrotation Yrotation Xrotation
										JOINT right_thumb_3
										{
											OFFSET -0.024004 -0.008353 0.006547
											CHANNELS 3 Zrotation Yrotation Xrotation
											End Site
											{
												OFFSET 0.000000 0.000000 0.000000
											}
										}
									}
								}
							}
						}
					}
				}
			}
		}
	}
}
MOTION
Frames: 5
Frame Time: 0.050000
0.140419 0.878406 1.065735 0.744753 1.593962 8.966593 -33.039971 -5.929168 -14.713972 29.704251 14.831204 -45.617319 25.027277 34.147140 124.446476 0.000000 0.000000 0.000000 35.067357 -5.430788 7.196756 -35.738364 -3.312111 -13.647176 -60.240705 -21.076755 147.009567 0.000000 0.000000 0.000000 7.456702 -3.994391 29.923906 -16.933815 -12.050161 -60.326708 13.452414 6.609554 33.912656 5.615532 6.033098 -44.094810 0.000000 0.000000 0.000000 133.165871 36.802760 37.144656 14.274016 37.219103 17.033309 -84.519144 -18.800813 18.346342 6.172858 -12.335967 37.012915 -12.729442 -0.468791 -1.241855 24.562725 -4.022979 5.049384 0.000000 0.000000 0.000000 3.014395 -10.759863 -5.948554 9.903474 -0.634537 10.542072 0.000000 0.000000 0.000000 47.849255 -15.967075 -12.233193 11.692343 2.725412 16.639167 0.000000 0.000000 0.000000 18.736018 -9.458826 -6.794160 10.911335 0.269434 7.630613 0.000000 0.000000 0.000000 -0.433461 18.750579 16.040218 -12.058071 -13.587256 0.190640 0.000000 0.000000 0.000000 -125.654187 -3.287584 21.509448 -54.899715 -34.718725 32.242978 84.369434 -40.583677 -38.039440 6.052044 -4.350960 43.992494 24.141294 -25.871563 -0.351623 -51.920317 5.698473 19.623254 0.000000 0.000000 0.000000 6.986510 0.221919 -1.708222 -45.988777 0.943767 53.886529 0.000000 0.000000 0.000000 -72.813427 10.499362 -39.103209 -46.927880 0.728473 36.690694 0.000000 0.000000 0.000000 -25.269618 10.098365 -10.456671 -75.377470 -4.573679 62.687423 0.000000 0.000000 0.000000 -35.069463 -53.412983 52.872817 15.905097 19.707590 -0.234991 0.000000 0.000000 0.000000 
0.136650 0.866962 1.113251 2.338649 5.621657 10.050484 -32.162835 -6.686192 -15.473476 29.537278 11.967096 -41.338921 24.445916 31.548463 139.294066 0.000000 0.000000 0.000000 36.192267 -5.555662 5.984131 -38.075172 -2.213659 -9.055380 -47.108256 -25.519864 152.834109 0.000000 0.000000 0.000000 8.707624 -4.011914 26.990849 -18.699079 -14.470309 -63.480897 13.834940 6.446307 37.360173 4.783589 5.089261 -46.001007 0.000000 0.000000 0.000000 134.632026 42.208708 39.045215 8.719180 38.675581 14.209587 -88.448370 -24.460222 25.732091 7.016230 -14.410744 34.918470 -12.100742 -1.545474 -1.420227 22.005374 -2.904075 7.865065 0.000000 0.000000 0.000000 2.607719 -11.073474 -6.183859 12.395151 -0.711903 13.351084 0.000000 0.000000 0.000000 44.056894 -15.626314 -9.736663 11.388749 3.265145 18.257428 0.000000 0.000000 0.000000 16.488141 -8.530177 -5.655658 8.432399 1.263967 10.952399 0.000000 0.000000 0.000000 0.178841 18.128757 15.752570 -10.763135 -14.379124 -0.517387 0.000000 0.000000 0.000000 -124.503568 -3.149432 23.820705 -57.354344 -32.560754 33.209167 93.358887 -42.504129 -44.722580 6.552820 1.202564 49.866478 27.334538 -28.755907 -2.572076 -47.387824 4.817583 21.993199 0.000000 0.000000 0.000000 15.151279 -4.786142 -2.566476 -33.756929 -4.676639 60.226772 0.000000 0.000000 0.000000 -77.974197 6.036482 -52.100991 -66.546968 5.539765 44.422731 0.000000 0.000000 0.000000 -21.476625 13.379356 -12.658796 -108.882841 6.900004 99.254644 0.000000 0.000000 0.000000 -36.982784 -57.963116 55.072654 18.191796 19.778580 0.571999 0.000000 0.000000 0.000000 
0.126757 0.859226 1.150208 0.322847 -2.407998 9.457689 -27.615356 -6.192709 -18.099626 36.165357 12.686571 -33.532156 10.734449 38.177414 151.791019 0.000000 0.000000 0.000000 33.990355 -6.099403 10.047742 -34.540806 -0.912328 -8.233881 -57.255613 -19.412215 145.181336 0.000000 0.000000 0.000000 6.130620 -2.999163 26.166319 -15.685505 -11.718096 -62.589642 14.517533 6.862705 34.860080 7.480893 7.074230 -43.930782 0.000000 0.000000 0.000000 139.880643 40.364887 46.898742 9.559479 39.001047 15.607472 -97.186779 -23.484229 30.414006 6.868722 -15.478214 33.437830 -11.982510 -2.771404 -1.776088 21.826426 -2.712642 8.621238 0.000000 0.000000 0.000000 2.491447 -10.171457 -5.594265 11.614057 0.553635 18.228963 0.000000 0.000000 0.000000 43.431855 -14.427496 -6.778484 9.186178 6.470756 24.820944 0.000000 0.000000 0.000000 14.005700 -7.488326 -4.553347 9.070601 3.109644 18.709841 0.000000 0.000000 0.000000 -2.267004 15.912062 13.961742 -11.813963 -15.136953 -0.322013 0.000000 0.000000 0.000000 -125.781808 -7.601307 21.826891 -60.258280 -30.800729 32.047344 106.266018 -49.622289 -64.288443 4.204948 -2.545267 30.153432 16.457779 -40.819730 4.796924 -57.201169 8.468878 23.152313 0.000000 0.000000 0.000000 10.871642 -13.611890 2.459389 -48.892985 12.222818 88.657994 0.000000 0.000000 0.000000 -81.774736 7.782027 -82.685215 -69.236140 3.198204 8.228647 0.000000 0.000000 0.000000 -33.878513 21.117197 -25.032846 177.755708 -2.377473 23.163904 0.000000 0.000000 0.000000 -69.623333 -51.567817 76.097453 19.896221 19.007304 1.699388 0.000000 0.000000 0.000000 
0.120161 0.861805 1.197723 -0.532171 -2.116921 10.589430 -25.824784 -6.141944 -18.629540 36.737872 10.515569 -28.822290 17.275363 36.942637 159.529302 0.000000 0.000000 0.000000 35.047509 -6.427274 10.326232 -34.274839 -0.095828 -5.825992 -41.533567 -23.102340 142.656128 0.000000 0.000000 0.000000 7.850622 -2.991143 23.454036 -14.704430 -11.938797 -63.481444 14.284181 6.233691 33.784616 10.155988 7.121683 -40.091701 0.000000 0.000000 0.000000 142.081198 38.466064 47.330753 14.489099 40.727976 19.077259 -103.807958 -15.981750 23.208999 5.158868 -14.107654 38.438333 -11.184105 1.063035 -0.631996 27.846093 -3.984882 8.789546 0.000000 0.000000 0.000000 4.211896 -9.146414 -4.730030 18.922764 -0.068350 24.215503 0.000000 0.000000 0.000000 48.776251 -13.744988 -8.138245 13.293429 6.551677 27.110801 0.000000 0.000000 0.000000 17.226542 -5.994948 -3.709311 15.225961 3.770026 22.625258 0.000000 0.000000 0.000000 -0.684662 20.663785 17.298646 -11.148840 -14.881139 -0.549124 0.000000 0.000000 0.000000 -128.511950 -7.436500 22.140129 -64.588680 -27.207529 31.539325 113.027472 -60.432085 -82.624865 -0.551548 -9.741198 5.985160 -6.303476 -41.476619 17.982034 -73.647842 9.693501 6.642174 0.000000 0.000000 0.000000 -10.916653 -7.011931 6.759073 -91.577171 28.979243 35.664356 0.000000 0.000000 0.000000 -77.390164 17.562750 -81.660189 -49.067503 3.028722 15.128529 0.000000 0.000000 0.000000 -41.957431 22.397536 -28.705235 -105.134833 -2.635489 4.595039 0.000000 0.000000 0.000000 -80.747179 -37.390956 64.068266 21.968083 15.267617 3.332024 0.000000 0.000000 0.000000 
0.115921 0.873248 1.239960 -6.144624 -25.044914 9.630151 -20.180076 -3.641658 -19.025853 48.374763 10.734378 -15.830342 32.442841 48.743723 174.871562 0.000000 0.000000 0.000000 28.920894 -6.093922 20.363832 -33.684397 1.053901 -8.089688 -17.449672 -12.789109 122.705030 0.000000 0.000000 0.000000 4.836338 -1.963576 25.069203 -2.929411 -5.316830 -65.316111 0.435690 -18.214131 37.458710 29.270377 12.966493 -23.628145 0.000000 0.000000 0.000000 137.950673 -1.151665 54.460041 49.941038 35.750326 45.050916 -106.113148 4.524046 -1.055218 3.333161 -10.744524 42.202239 -13.378821 7.930774 0.634321 39.738276 -5.140289 12.410926 0.000000 0.000000 0.000000 3.617366 -5.846038 -2.642217 31.289645 -2.908682 26.827054 0.000000 0.000000 0.000000 58.764458 -14.577402 -19.241253 26.785863 3.765598 30.053520 0.000000 0.000000 0.000000 21.576306 -6.174028 -4.551027 36.096101 2.130692 25.607376 0.000000 0.000000 0.000000 7.979111 34.786083 28.358752 -13.172531 -16.179582 -0.211477 0.000000 0.000000 0.000000 -119.009720 -43.044669 4.715852 -58.786201 -42.827894 29.054077 110.567583 -56.106313 -82.628182 -4.378824 -8.219190 10.662676 -5.319440 -35.784843 14.903195 -71.093053 6.703436 -0.280356 0.000000 0.000000 0.000000 -14.132066 -2.828118 4.739813 -80.942684 11.605962 13.460607 0.000000 0.000000 0.000000 -75.554888 18.104058 -67.831781 -42.028002 2.362706 16.651752 0.000000 0.000000 0.000000 -40.021451 17.757766 -21.545857 -76.437114 -2.517560 3.310091 0.000000 0.000000 0.000000 -71.236977 -38.204018 54.264767 21.297640 15.986518 2.916949 0.000000 0.000000 0.000000 
